<?xml version="1.0" encoding="utf-8"?>
<!-- Generator: Adobe Illustrator 16.0.3, SVG Export Plug-In . SVG Version: 6.00 Build 0)  -->
<!DOCTYPE svg PUBLIC "-//W3C//DTD SVG 1.1//EN" "http://www.w3.org/Graphics/SVG/1.1/DTD/svg11.dtd">
<svg version="1.1" id="Capa_1" xmlns="http://www.w3.org/2000/svg" xmlns:xlink="http://www.w3.org/1999/xlink" x="0px" y="0px"
	 width="152px" height="150px" viewBox="0 0 152 150" enable-background="new 0 0 152 150" xml:space="preserve">
<path fill="#D64343" d="M78.5,10c-36.147,0-65.45,29.55-65.45,66s29.303,66,65.45,66s65.45-29.55,65.45-66S114.647,10,78.5,10z
	 M78.458,37.421c11.901,0,21.548,9.771,21.548,21.824s-9.647,21.824-21.548,21.824c-11.9,0-21.548-9.771-21.548-21.824
	S66.558,37.421,78.458,37.421z M42.795,123.997c4.644-19.313,18.613-33.347,35.137-33.347c16.725,0,30.826,14.378,35.296,34.055
	C103.454,131.805,91.466,136,78.5,136C65.103,136,52.741,131.532,42.795,123.997z"/>
</svg>
