<?xml version="1.0" encoding="utf-8"?>
<!-- Generator: Adobe Illustrator 16.0.3, SVG Export Plug-In . SVG Version: 6.00 Build 0)  -->
<!DOCTYPE svg PUBLIC "-//W3C//DTD SVG 1.1//EN" "http://www.w3.org/Graphics/SVG/1.1/DTD/svg11.dtd">
<svg version="1.1" id="Capa_1" xmlns="http://www.w3.org/2000/svg" xmlns:xlink="http://www.w3.org/1999/xlink" x="0px" y="0px"
	 width="129px" height="100px" viewBox="0 0 129 100" enable-background="new 0 0 129 100" xml:space="preserve">
<g>
	<path fill="#AB3834" d="M89.097,42.257c-0.909-0.908-1.979-1.627-3.205-2.157c-1.226-0.528-2.54-0.794-3.938-0.794
		c-1.419,0-2.742,0.266-3.968,0.794c-1.227,0.53-2.29,1.245-3.191,2.143c-0.901,0.898-1.615,1.954-2.144,3.164
		c-0.525,1.211-0.789,2.496-0.789,3.858s0.264,2.648,0.789,3.859c0.528,1.211,1.242,2.266,2.144,3.164
		c0.901,0.897,1.965,1.612,3.191,2.142c1.226,0.528,2.549,0.794,3.968,0.794c1.398,0,2.713-0.266,3.938-0.794
		c1.227-0.529,2.296-1.249,3.205-2.156c0.912-0.908,1.631-1.962,2.158-3.163c0.526-1.202,0.79-2.483,0.79-3.846
		s-0.264-2.644-0.79-3.845C90.728,44.22,90.009,43.164,89.097,42.257z"/>
	<path fill="#AB3834" d="M67,11c-29.823,0-54,16.342-54,36.5c0,10.916,7.098,20.705,18.334,27.395l-4.688,16.41l20.504-9.861
		C53.296,83.087,59.988,84,67,84c29.823,0,54-16.342,54-36.5S96.823,11,67,11z M46.918,63.976c-0.795,0.786-1.759,1.179-2.889,1.179
		c-1.132,0-2.095-0.393-2.89-1.179c-0.796-0.784-1.193-1.734-1.193-2.851c0-1.115,0.397-2.066,1.193-2.851
		c0.795-0.785,1.758-1.179,2.89-1.179c1.13,0,2.094,0.394,2.889,1.179c0.795,0.784,1.193,1.735,1.193,2.851
		C48.112,62.241,47.713,63.191,46.918,63.976z M59.67,62.175c-0.019,0.833-0.321,1.537-0.905,2.114
		c-0.585,0.578-1.291,0.865-2.114,0.865c-0.824,0-1.529-0.287-2.114-0.865c-0.583-0.577-0.876-1.281-0.876-2.114v-25.82
		c0-0.832,0.292-1.537,0.876-2.114c0.585-0.577,1.291-0.865,2.114-0.865c0.823,0,1.529,0.289,2.114,0.865
		c0.583,0.578,0.886,1.282,0.905,2.114V62.175z M59.153,30.198c-0.69,0.681-1.524,1.021-2.501,1.021s-1.812-0.34-2.501-1.021
		s-1.035-1.504-1.035-2.469c0-0.964,0.345-1.787,1.035-2.468s1.524-1.021,2.501-1.021s1.811,0.34,2.501,1.021
		c0.69,0.681,1.035,1.504,1.035,2.468C60.188,28.694,59.843,29.517,59.153,30.198z M93.339,60.501
		c-3.182,3.103-6.977,4.653-11.386,4.653c-4.446,0-8.242-1.551-11.386-4.653c-3.145-3.102-4.716-6.847-4.716-11.236
		c0-4.388,1.571-8.133,4.716-11.236c3.144-3.102,6.939-4.653,11.386-4.653c4.409,0,8.204,1.551,11.386,4.653
		c1.571,1.552,2.746,3.264,3.521,5.136c0.777,1.873,1.175,3.907,1.193,6.101C98.054,53.691,96.482,57.437,93.339,60.501z"/>
</g>
</svg>
